# xmcd
#
# Track frame offsets:
#	150
#	14666
#	31392
#	48069
#	69501
#	85884
#	102476
#	121261
#	138373
#	152461
#	170797
#	188457
#	203153
#
# Disc length: 2931 seconds
#
# Revision: 2
# Processed by: cddbd v1.5.2PL0 Copyright (c) Steve Scherf et al.
# Submitted via: audiograbber 1.83.01
#
DISCID=a70b710d
DTITLE=Shakira - Servicio de Lavandería
DYEAR=2001
DGENRE=Pop
TTITLE0=Suerte
TTITLE1=Underneath your Clothes
TTITLE2=Te Aviso, Te Anuncio (Tango)
TTITLE3=Que Me Quedes tú
TTITLE4=Rules
TTITLE5=The One
TTITLE6=Ready for the Good Times
TTITLE7=Fool
TTITLE8=Te Dejo Madrid
TTITLE9=Poem to a Horse
TTITLE10=Eyes like Yours (Ojos Así)
TTITLE11=Whenever, Wherever
TTITLE12=Objection (Tango)
EXTD=YEAR: 2001
EXTT0=
EXTT1=
EXTT2=
EXTT3=
EXTT4=
EXTT5=
EXTT6=
EXTT7=
EXTT8=
EXTT9=
EXTT10=
EXTT11=
EXTT12=
PLAYORDER=
